/* XPM */
static char *_515860750600[] = {
/* columns rows colors chars-per-pixel */
"16 16 76 1 ",
"  c #EF255D",
". c #ED255E",
"X c #F3245A",
"o c #F0245C",
"O c #F0255C",
"+ c #DD2A6B",
"@ c #DE2A6A",
"# c #DF2A6A",
"$ c #DE2A6B",
"% c #DA2B6D",
"& c #DB2B6D",
"* c #DA2B6E",
"= c #DC2B6C",
"- c #D82C6F",
"; c #D92C6F",
": c #CF2F77",
"> c #D72C71",
", c #D62D71",
"< c #D52D72",
"1 c #D42D73",
"2 c #D12E75",
"3 c #D22E74",
"4 c #D32E74",
"5 c #D02E76",
"6 c #C6317E",
"7 c #C5327E",
"8 c #C6327E",
"9 c #CB307A",
"0 c #CA307B",
"q c #E92661",
"w c #EA2660",
"e c #EB2660",
"r c #EA2761",
"t c #E92762",
"y c #E22967",
"u c #E42865",
"i c #E52865",
"p c #E62865",
"a c #E42866",
"s c #E12968",
"d c #E02969",
"f c #E22968",
"g c #BF3483",
"h c #BB3587",
"j c #BC3586",
"k c #B5378B",
"l c #B7368A",
"z c #B6368B",
"x c #B3378E",
"c c #B4378C",
"v c #B5378C",
"b c #B4378D",
"n c #B0388F",
"m c #B1388F",
"M c #B2388E",
"N c #A73B97",
"B c #AF3890",
"V c #AF3991",
"C c #AC3993",
"Z c #AE3992",
"A c #AC3A93",
"S c #A93A95",
"D c #AB3A94",
"F c #A83B96",
"G c #A83B97",
"H c #A53B98",
"J c #A63B98",
"K c #A23C9B",
"L c #A53C98",
"P c #A43C9A",
"I c #B03890",
"U c #C23381",
"Y c #C13382",
"T c #C03383",
"R c #C43280",
"E c None",
/* pixels */
"EEqEEaeOXOqaEEEE",
"EE#EEar.O.raEEEE",
"EEEEEEEqqrasEEEE",
"EE3>&$syaafsEEEE",
"EE3>>&####=EEEEE",
"EEEEEEE&&&;EEEEE",
"E33E:3>4>>>EEEEE",
"EEEEEEE3:::EEEEE",
"EEEEEEEE999EEEEE",
"EEETYR7777EEEEEE",
"EEEEEEYYYYEEEEEE",
"EEEEEEjjjjEEEEEE",
"EEIMbbblllbbxIBE",
"EEEEEExMMMMIBBDE",
"EEEEEDDABDAADGLE",
"EEIEJGJLDJJLLPKE"
};
