/* XPM */
static char *_515860762549[] = {
/* columns rows colors chars-per-pixel */
"32 32 144 2 ",
"   c #EE255D",
".  c #EF255D",
"X  c #ED255E",
"o  c #EE255E",
"O  c #EC265F",
"+  c #ED265F",
"@  c #F1245B",
"#  c #F3245A",
"$  c #F1245C",
"%  c #F0255C",
"&  c #DD2A6B",
"*  c #DE2A6A",
"=  c #DF2A6A",
"-  c #DE2A6B",
";  c #DB2B6D",
":  c #D92B6F",
">  c #DA2B6E",
",  c #DD2A6C",
"<  c #DC2B6C",
"1  c #DC2B6D",
"2  c #D92C6E",
"3  c #D82C6F",
"4  c #D92C6F",
"5  c #CF2F76",
"6  c #CE2F77",
"7  c #CF2F77",
"8  c #CD2F78",
"9  c #CC2F79",
"0  c #CD2F79",
"q  c #CE2F78",
"w  c #D32D73",
"e  c #D52D71",
"r  c #D72C70",
"t  c #D62C71",
"y  c #D72C71",
"u  c #D62D71",
"i  c #D42D72",
"p  c #D52D72",
"a  c #D42D73",
"s  c #D32D74",
"d  c #D12E75",
"f  c #D22E74",
"g  c #D32E74",
"h  c #D22E75",
"j  c #D02E76",
"k  c #C7317D",
"l  c #C5317E",
"z  c #C6317E",
"x  c #C4327F",
"c  c #C5327F",
"v  c #CB307A",
"b  c #CA307B",
"n  c #CC3079",
"m  c #C9317C",
"M  c #C8317D",
"N  c #E72763",
"B  c #E72764",
"V  c #E92761",
"C  c #EB2660",
"Z  c #EA2661",
"A  c #EA2761",
"S  c #E82762",
"D  c #E92762",
"F  c #E82763",
"G  c #EC2660",
"H  c #E32866",
"J  c #E22967",
"K  c #E32967",
"L  c #E52864",
"P  c #E42865",
"I  c #E52865",
"U  c #E62864",
"Y  c #E42866",
"T  c #E12968",
"R  c #E02969",
"E  c #E12969",
"W  c #E22968",
"Q  c #BF3383",
"!  c #BF3483",
"~  c #BA3587",
"^  c #BB3587",
"/  c #BD3485",
"(  c #BE3484",
")  c #BF3484",
"_  c #BE3485",
"`  c #BC3486",
"'  c #BC3586",
"]  c #B5368B",
"[  c #B5378B",
"{  c #B6368A",
"}  c #B7368A",
"|  c #B6368B",
" . c #B3378D",
".. c #B3378E",
"X. c #B4378C",
"o. c #B5378C",
"O. c #B4378D",
"+. c #B93588",
"@. c #BA3588",
"#. c #B83689",
"$. c #B1388E",
"%. c #B0388F",
"&. c #B1388F",
"*. c #B2388E",
"=. c #B3388E",
"-. c #A73B96",
";. c #A63B97",
":. c #A73B97",
">. c #AB3A93",
",. c #AF3890",
"<. c #AF3891",
"1. c #AE3991",
"2. c #AF3991",
"3. c #AC3992",
"4. c #AD3992",
"5. c #AC3993",
"6. c #AE3992",
"7. c #AC3A93",
"8. c #A93A95",
"9. c #AA3A94",
"0. c #AB3A94",
"q. c #AA3A95",
"w. c #A83A96",
"e. c #A93A96",
"r. c #A83B96",
"t. c #A53B99",
"y. c #A63B98",
"u. c #A33C9A",
"i. c #A23D9B",
"p. c #A53C98",
"a. c #A43C99",
"s. c #A53C99",
"d. c #A63C98",
"f. c #A13D9C",
"g. c #B03890",
"h. c #C13381",
"j. c #C33280",
"k. c #C23381",
"l. c #C03382",
"z. c #C13382",
"x. c #C03383",
"c. c #C23382",
"v. c #C43280",
"b. c None",
/* pixels */
"b.b.b.b.b.b.b.b.b.b.b.b.b.b.b.b.b.b.b.b.b.b.b.b.b.b.b.b.b.b.b.b.",
"b.b.b.b.F X F b.b.T I N F X X @ # # % % X F B I b.b.b.b.b.b.b.b.",
"b.b.b.b.= T = b.b.T I I F X X X % % % G O N B H b.b.b.b.b.b.b.b.",
"b.b.b.b.b.: b.b.b.b.I I F F X X % X G G F N I K b.b.b.b.b.b.b.b.",
"b.b.b.b.b.b.b.b.b.b.b.b.b.b.F F G F F F F F H K b.b.b.b.b.b.b.b.",
"b.b.b.b.b.b.b.b.b.b.b.b.b.b.F F F F F N N I K = b.b.b.b.b.b.b.b.",
"b.b.b.b.f b.b.b.b.b.b.b.b.I B I F I I I K K = = b.b.b.b.b.b.b.b.",
"b.b.b.0 f f r r 2 1 1 T T T T H I I I K K = = b.b.b.b.b.b.b.b.b.",
"b.b.b.0 n g g r y 2 1 1 1 T T T K = T = = = 1 b.b.b.b.b.b.b.b.b.",
"b.b.b.b.b.b.b.b.b.b.b.b.b.= 1 = = = = = 1 1 : b.b.b.b.b.b.b.b.b.",
"b.b.b.b.b.b.b.b.b.b.b.b.b.b.1 1 : & : 1 : 2 2 b.b.b.b.b.b.b.b.b.",
"b.b.b.b.b.b.b.b.b.b.b.b.b.2 y y 2 : 2 r 2 2 b.b.b.b.b.b.b.b.b.b.",
"b.b.r r r b.b.b.f f f r r r r r r r r r r w b.b.b.b.b.b.b.b.b.b.",
"b.b.7 f f b.b.n 0 0 7 f f f g g w w w w f f b.b.b.b.b.b.b.b.b.b.",
"b.b.n n b b.b.b.n 0 7 7 0 f f f f f f f f 7 b.b.b.b.b.b.b.b.b.b.",
"b.b.b.b.b.b.b.b.b.b.b.b.b.b.b.0 0 7 7 0 0 0 b.b.b.b.b.b.b.b.b.b.",
"b.b.b.b.b.b.b.b.b.b.b.b.b.b.b.b.0 0 0 b b b.b.b.b.b.b.b.b.b.b.b.",
"b.b.b.b.b.b.b.b.b.b.b.b.b.b.b.b b b b b b b.b.b.b.b.b.b.b.b.b.b.",
"b.b.b.b.b.' x.k.v.v.v.l l b b l l b k k l b.b.b.b.b.b.b.b.b.b.b.",
"b.b.b.b.b.) ' k.x.k.k.k.v.k.v.v.v.l l l l b.b.b.b.b.b.b.b.b.b.b.",
"b.b.b.b.b.b.' ' ' k.' k.x.k.k.k.k.k.v.k.k.b.b.b.b.b.b.b.b.b.b.b.",
"b.b.b.b.b.b.b.b.b.b.b.b.x.x.x.x.x.k.' k.b.b.b.b.b.b.b.b.b.b.b.b.",
"b.b.b.b.b.b.b.b.b.b.b.b.' ' ' ' ' ' ' ' b.b.b.b.b.b.b.b.b.b.b.b.",
"b.b.b.b.b.*.O.} } } b.@.@.@.@.@.@.' ' ^ b.b.b.b.b.b.b.b.b.b.b.b.",
"b.b.b.g.*. . . .X.X.@.X.@.X.@.@.@.@.} @.b.b.b.b.b.b.b.b.b.b.b.b.",
"b.b.b.b.6.6.g.g.*.*.*.X.X.X.X.X.X.X.X.X.X.X.X. .*.*.*.g.6.6.6.b.",
"b.b.b.b.b.b.b.b.b.b.b.b.b.O.X.X. . . . .*.*.*.g.g.g.6.6.6.9.9.b.",
"b.b.b.b.b.b.b.b.b.b.b.b.b.g.g.g.*.g.*.g.g.g.g.6.6.6.6.9.9.9.9.b.",
"b.b.b.b.b.b.b.b.b.b.b.b.b.5.6.6.6.6.6.6.6.6.5.9.9.9.9.9.:.:.b.b.",
"b.b.b.b.} } b.b.:.9.9.9.9.5.5.5.5.5.9.5.0.9.9.9.9.:.:.:.s.s.b.b.",
"b.b.b.*.g.*.*.b.:.:.:.:.9.:.:.:.9.:.:.:.:.:.9.y.y.s.y.s.i.i.b.b.",
"b.b.b.b.5.0.b.b.b.i.s.:.s.s.:.:.:.:.:.:.y.y.s.y.i.s.i.i.i.b.b.b."
};
