/* XPM */
static char *_515860782739[] = {
/* columns rows colors chars-per-pixel */
"128 128 27 1 ",
"  c #EE265E",
". c #F1255C",
"X c #DC2B6D",
"o c #CF2F77",
"O c #CE2F78",
"+ c #D32E74",
"@ c #D82C70",
"# c #D02F78",
"$ c #CF3077",
"% c #C6327F",
"& c #CB307A",
"* c #EB2761",
"= c #E52966",
"- c #E82863",
"; c #E12A69",
": c #9F3D9D",
"> c #BE3586",
", c #B6378C",
"< c #B93689",
"1 c #B3388E",
"2 c #A73B97",
"3 c #AC3A94",
"4 c #A53C99",
"5 c #A83C98",
"6 c #B13990",
"7 c #C23382",
"8 c None",
/* pixels */
"88888888888888888888888888888888888888888888888888888888888888888888888888888888888888888888888888888888888888888888888888888888",
"88888888888888888888888888888888888888888888888888888888888888888888888888888888888888888888888888888888888888888888888888888888",
"88888888888888888888888888888888888888888888888888888888888888888888888888888888888888888888888888888888888888888888888888888888",
"888888888888888888**....**8888888888888======---*-****    . .....................****-*---=-=-=X88888888888888888888888888888888",
"88888888888888888**  ... *-8888888888;=;;===----**** *    ................. ..   ******=---=====;8888888888888888888888888888888",
"8888888888888888--** *.**--=88888888;;;=====----***** *   . .................     ******--=-=====8888888888888888888888888888888",
"888888888888888;==-******-===888888;;=;=====-=--**** **. .  . .............       ****-----====-;;888888888888888888888888888888",
"888888888888888;;==-*-*---==;888888;;;=;;====----***** **.  ...............     ********---====X=;888888888888888888888888888888",
"88888888888888X;;;===---==;;XX88888;;;;=======----**- * *    ......... .... .  * *****-==--===;=;;888888888888888888888888888888",
"888888888888888XX;;;;=;;;;;;X888888;;;;=;====-=---** *     . .. .... ....      * ******---======;=888888888888888888888888888888",
"888888888888888XXX;;;;;;;;XXX888888;;;;;====-----*-****   * .  .  . ....    .**.********=--==;=;;8888888888888888888888888888888",
"888888888888888XXXXX;X;XXXXX@888888;;;;;=;=====----*******     ... ..    .. *.*******===--====;=;8888888888888888888888888888888",
"8888888888888888@@XXXXXXX@X@88888888;;;;;=====-----***** *             .    *.******-----=;-=;==;8888888888888888888888888888888",
"88888888888888888@@@@@X@@@@8888888888;;;=;=;==-=----**** *   **.  .       *  ****-*----=-=;-==;;;8888888888888888888888888888888",
"8888888888888888888@@+@@@88888888888888888888888888-**-*** *  *     .  *  *  * ****------=-;=;;;;8888888888888888888888888888888",
"888888888888888888888888888888888888888888888888888888*******  *  * *    * *******---=-==--;=;==88888888888888888888888888888888",
"88888888888888888888888888888888888888888888888888888888-****.***  -    ** *****-*----====;=;;;;88888888888888888888888888888888",
"888888888888888888888888888888888888888888888888888888888********* * - -********-----==--;===;;;88888888888888888888888888888888",
"888888888888888888888888888888888888888888888888888888888*********  - - *******----=--==-==;;;;;88888888888888888888888888888888",
"888888888888888888888888888888888888888888888888888888888-*-***- --**- -**-***------=-;=;-;==;;888888888888888888888888888888888",
"888888888888888888888888888888888888888888888888888888888*--*-******-*- *-*--------=====-;;=;;;888888888888888888888888888888888",
"888888888888888888888888888888888888888888888888888888888------*-----**-*-----=--;--==-;;=;;;;;888888888888888888888888888888888",
"888888888888888888888888888888888888888888888888888888888--------*-*-*----------==-;;=;;;;;;;;;888888888888888888888888888888888",
"88888888888888888888888888888888888888888888888888888888=---=----------*---=-===-=-;-=-;-;;;;;X888888888888888888888888888888888",
"8888888888888888888888888888888888888888888888888888888=-===-----------=--=-=======;=;;;;;;;;;8888888888888888888888888888888888",
"88888888888888888888888888888888888888888888888888888=====-=====----=-=-=-====-====;=;=;=;;;X=8888888888888888888888888888888888",
"888888888888888++++++++@@@@@@@@@X@XXXXX;XX;;;;;;;;=;;==;;===---=;-;-=-=====-=======;;=;;;;;;XX8888888888888888888888888888888888",
"8888888888888O##$#+++++@++@@@@X@@X@XXXXXX;X;X;;;;;;==;====;==;==---;=-====-=====;=;;;;;;;;;XXX8888888888888888888888888888888888",
"888888888888+OO$+#++++++@+@@@@@@@@XXXXXXXX;X;;;;;;;;;=;===;==;==;-;-;=======;==;=;;=;;;;;X;X;;8888888888888888888888888888888888",
"888888888888$$O+#+o++++++@++@@@@X@X@XXXX;XX;XX;XX;;;;;;;;==;;==;;;-;;-;;==;==;;=;;;;;;;;;;;XX88888888888888888888888888888888888",
"88888888888O$&oo$+++++++++@@+@@@@@@XXXXXXXX;X;;;;;;;;;;;;==;==;=--;--;=-====;;;;;;;;;;XXXX;XX88888888888888888888888888888888888",
"88888888888&$$Oooooo+++++@++@@@@@X@@XXXXXXXX;XXX;X;;;;;;;;;;=;=;;;;;;;;=;;;;;=;;;;;;;;;;;XX;X88888888888888888888888888888888888",
"88888888888O$OOO#+$#+++++++@@+@@@@@X@XXXXXXXXXX;;;;X;;;;;;;;;;;; ; ;;;;=X ;;;;;X;;X;;;X;;XXXX88888888888888888888888888888888888",
"888888888888&&$OO##+$++++++++@@@+@@@@X@X@XXXXXXXXXX;X;X;;;;;;;;;XXX;=;;;X;;;;X;=X;;;X;XXXXXXX88888888888888888888888888888888888",
"888888888888&&O$$Ooo+++++++@+@@+@@@@X@X@XXXXXXX;X;X;;X;;X;;;;;;;X;;;;;;;;;;X;;;;;X;X;X;XXXXX888888888888888888888888888888888888",
"88888888888888O$$$+$$#+#++++++@@+@@@@@@X@X@XXXXXX;XXX;;X;;;X;;;X;X;;X;X;;;;;;XXXX;X;XXXXXXXX888888888888888888888888888888888888",
"8888888888888888Ooo+##++++++@++@@@@@@@@@@XXXXXXXXXX;X;;XX;X;;X;;;;;XXX;;X;;XX=X=XX;XX;XXXXXX888888888888888888888888888888888888",
"888888888888888888888888888888888888888888888888888XXXXXXX;;X;X;X;X;=;;X;XX;;XXX;XXXXXXXXXX@888888888888888888888888888888888888",
"88888888888888888888888888888888888888888888888888888XXX;X;XXX;;X;;XXXXXX;X;XXXXXXXXXXX@@X@8888888888888888888888888888888888888",
"888888888888888888888888888888888888888888888888888888XXXXXX;XXXXX;XX=X=XXXXXXXXXXXXXX@XXX@8888888888888888888888888888888888888",
"888888888888888888888888888888888888888888888888888888XXXXXXXXXXXXXXXXXXXXXXXXXXXXXXXXX@X@X8888888888888888888888888888888888888",
"888888888888888888888888888888888888888888888888888888XXXXXXXXXXX;XXXXXXXXXXXXXXXX@X@@@@@@@8888888888888888888888888888888888888",
"888888888888888888888888888888888888888888888888888888X@XXXXXX@XXXXXXXXXXXX@XXXXXXXXX@X@@@@8888888888888888888888888888888888888",
"888888888888888888888888888888888888888888888888888888@XX@@XXXXXXXXXXXXX@XXXX@@X@@@@@@X@@@88888888888888888888888888888888888888",
"888888888888888888888888888888888888888888888888888888@X@@X@@XX@XXXXXXXXX@XX@X@X@@@@@@@@+@88888888888888888888888888888888888888",
"88888888888888888888888888888888888888888888888888888@@@X@X@X@@X@@@XX@@@@X@@@@@@@@@@@@@@@@88888888888888888888888888888888888888",
"8888888888888888888888888888888888888888888888888888@@@@@@@@X@@@@@@@X@X@@@X@@@@@@@@@@@@@@@88888888888888888888888888888888888888",
"8888888888888@888888888888888888888888888888888888@@@@@@@@@@@@@@X@@@@@@@@@@@@@@@@@@@@+@++@88888888888888888888888888888888888888",
"8888888888@@@@@@@@88888888888888+$$++++++++++++@@++@+@@@@@@+@@@@@@@@+@@@@@@@@@@@+@@+@++@+888888888888888888888888888888888888888",
"88888888@@+@@@+@@@@88888888888O##O#+#++o++++@++@++@@@++@+@@@@@@@@@@@@@@@@++@@@@@@@+@+@@++888888888888888888888888888888888888888",
"8888888++++++@+@+@+@888888888O##o$OO+o++++++++++@+++@+@+@+@@@@+@@@+@@@+@@@+@@@+@+@+@++@+@888888888888888888888888888888888888888",
"8888888++@+++++@+@+++88888888&OOO++$$$+$+o++++++++@++@+++@+@+@@+++@+@+@@+@@+$+@+@++@@++++888888888888888888888888888888888888888",
"888888++++#++++++++++8888888&O$$#OO#O$#+++$++++++++++@++++@+++++@++@+@@+@@+@@@@+++++++++8888888888888888888888888888888888888888",
"888888+#+#+++O+++O++$8888888$&&O$O#$o+O$O++O#+#+++++++++@+++@@+@@+@++++@+++@$++++++++++#8888888888888888888888888888888888888888",
"888888OO#+$+o+#+O++$$8888888&O$&&$$&OOO+$O#++O$+++#+++++++++++++++++++++++++$@@$++++++++8888888888888888888888888888888888888888",
"8888888$OOOOOO##OO##O8888888O&&O$&$&$$$$+#$O$++$+#+++++++++++++++++@+@+++++++$@$+#+++o++8888888888888888888888888888888888888888",
"8888888O$O$$&$&$$$$OO88888888&&&&O&$#OO$$O###+#+##+++$++++o+#+++++++++++++++++o++o+$#+$o8888888888888888888888888888888888888888",
"88888888&&&&O&O&$&&&8888888888&&&&O&&&$$&#O$O#$#o++O$+#+o++++++#+O+++++++$++o++++$$++o+88888888888888888888888888888888888888888",
"888888888&&&OO&&$&&888888888888&&&&&O$&&&O$$$O#OOOOO+$+o+oO++$#++o$+O+$++++++o$o#+#+O$O88888888888888888888888888888888888888888",
"88888888888&%&&&&8888888888888888&&&&&#$OO$O$$#Oo$+OoO$+$+oO+$+$$++$+O#+$$$$o+$+$+O#O+O88888888888888888888888888888888888888888",
"88888888888888888888888888888888888888888888888888888888888#+O#+#+###$##o$##o+$OO#$OO$#88888888888888888888888888888888888888888",
"8888888888888888888888888888888888888888888888888888888888888O$+O#+$+#+$#+O#oooOOOO#OO$88888888888888888888888888888888888888888",
"8888888888888888888888888888888888888888888888888888888888888OOOOO$O#OOOoOOO$OO$O$$$$$888888888888888888888888888888888888888888",
"88888888888888888888888888888888888888888888888888888888888888#$$$$$$$$$$$$&$$$$OO&&&$888888888888888888888888888888888888888888",
"88888888888888888888888888888888888888888888888888888888888888&$$$O$#O$#O$OO&O&$$&&$&$888888888888888888888888888888888888888888",
"88888888888888888888888888888888888888888888888888888888888888&$$&&&&&&&&$&&$&O&&&&&&&888888888888888888888888888888888888888888",
"88888888888888888888888888888888888888888888888888888888888888&&&O$&&O&O&&OO&&&&&&$&&&888888888888888888888888888888888888888888",
"88888888888888888888888888888888888888888888888888888888888888&&&&&O&O&&O&&&&O&&&&&&&8888888888888888888888888888888888888888888",
"8888888888888888888888888888888888888888888888888888888888888&&&O&&O&&O&&&O&&7&&&&&&&8888888888888888888888888888888888888888888",
"888888888888888888888888888888888888888888888888888888888888&&&&O7O&7O&&&&&&&&&&&&&7&8888888888888888888888888888888888888888888",
"8888888888888888888888888888888888888888888888888888888888&&%&&%&&O&&7O77&7&7&&7&7&&&8888888888888888888888888888888888888888888",
"8888888888888888888888888777777777&77%7&7%&77&&&&%%&%%&%&%&%&%&&&7&7&&&&&&&&&&&&&&7788888888888888888888888888888888888888888888",
"8888888888888888888888877>7777777%&77%7&&7&&7&&7%%&%%&%&&%%&%%%&&&&7%&&&&7&7O7O7&&7&88888888888888888888888888888888888888888888",
"88888888888888888888887>777777777777%7777%77&77&%%%%%%%%%&&%%&%&77&&&&7&7&&77O&&%%&788888888888888888888888888888888888888888888",
"888888888888888888888>>>7>7777777777777&%7%%7&77%%%%%%%%%%%%%%&%&77&7&&7&7&&&%77%%&%88888888888888888888888888888888888888888888",
"888888888888888888888>7>7<77>777777777777%77777&%7%%%%%%%%%%%%%%7&&7&77&7&&77&7&&77%88888888888888888888888888888888888888888888",
"88888888888888888888>>>7>7><7>777777777%7%7%%%777%7%%%%%%%7%%%%%&&7&%%%77&&777&7&7%888888888888888888888888888888888888888888888",
"88888888888888888888>>>>7<>7>7>>>7>777777777777&%7%%7%77%%%%%%7%7777%%7&%77&&777%77888888888888888888888888888888888888888888888",
"888888888888888888888>>>>77>>7>77>7777777777777777%7%%%%%7%%7%%%77&77%%%7&777&&77%7888888888888888888888888888888888888888888888",
"888888888888888888888<>>>><>7<77>7>7>77777777777%77777777%77%77%&7&7%%7777&77777%77888888888888888888888888888888888888888888888",
"8888888888888888888888>>>>>>>>><>>>7777777777777%777777777%7%7777777777777777777777888888888888888888888888888888888888888888888",
"88888888888888888888888<<>><7<>7>7>>>>>>7>>7>777>77777777777777%77777&7777777777778888888888888888888888888888888888888888888888",
"8888888888888888888888888>><>>>>>7>>>77>>7>77>>7>%777777777777777777777777777777778888888888888888888888888888888888888888888888",
"88888888888888888888888888888888888888888888>77>77>77>77777777777777777777777777778888888888888888888888888888888888888888888888",
"8888888888888888888888888888888888888888888888>77>777777>77>77<7777>77777777<777778888888888888888888888888888888888888888888888",
"88888888888888888888888888888888888888888888888>>7>><7<7>77>7>777>77777777<7777<778888888888888888888888888888888888888888888888",
"8888888888888888888888888888888888888888888888887>>>7>7>>>>7<>77>>77>77>7<777<77>88888888888888888888888888888888888888888888888",
"888888888888888888888888888888888888888888888888>>>7<7<7>77>77>>>7>>7>>777<<77<7>88888888888888888888888888888888888888888888888",
"8888888888888888888888888888888888888888888888888<7<7<<7<77<<7<7>7<7<77<77<77<7>>88888888888888888888888888888888888888888888888",
"888888888888888888888888888888888888888888888888<7<7<77<<7<77<77>>>>77<7>>7<<7>>>88888888888888888888888888888888888888888888888",
"8888888888888888888888888888888888888888888888887<<7<<777<7<<7<<>>><<<<<><<>7<<7888888888888888888888888888888888888888888888888",
"888888888888888888888888888888888888888888888888<<<<7<<<7<<7<<7<>><77<77<7<><<7<888888888888888888888888888888888888888888888888",
"88888888888888888888888888888888888888888888888<<<<7<7<7<7<<<7<7<>>><>7<7<<<7<7<888888888888888888888888888888888888888888888888",
"888888888888888888888888888888888888888888888<<<7<<<<<<<<<7<<7<<<<><<<<<<<7<<<<<888888888888888888888888888888888888888888888888",
"888888888888888881116,,,,1,,,,,,,<,<,<<<<,<<<<<<<<<<<<,<<<<<<<<<7<<<>><><7<<<<<<888888888888888888888888888888888888888888888888",
"88888888888888866,6111111,1,,,,,,,,,<<6,<<<<<<<<<<<<<<7<<<<<,7<<<<<><<<<<<<<<7<<888888888888888888888888888888888888888888888888",
"888888888888888661616111,1,1,,,,,,,<,,<,,1<,<,<<<<<<<<<<<<<<<<<<<<<<<<<<<<<<<<<<888888888888888888888888888888888888888888888888",
"888888888888886666661111111,111,,,,6,,,,,<,,<,,,,<<<,<<,<<,<<<<<<<<<<<<<<<<<<,<<<88888888888888888888888888888888888888888888888",
"8888888888888866666666111111111,,,6,,,,,,,,,,<,,<<<,,<<,<,<<<<<<<<<,<<,<,<<<<,<,,<8888888888888888888888888888888888888888888888",
"888888888888886666611136616111116,,,,6,,,,,,,,,,,,,,<,,<,<,,,,,<,<<,<<<<,<<,<,,<,,,<,,,,,,,,,11<11<666<61161666,6666666638888888",
"88888888888888313666661161161111,11,6,1,,,,,,,,,,,,,,,,,,,,<<,,<,<,,,,<,,<,,,<,,,<1<,,,,,,,111116<6,<<66111116666636666366688888",
"888888888888883363636631666161166,11,,61,11,,1,1,,,,,,,,,,,,,,,,,,,,,,,,,,,,,,,,,,,1,,,,,,,1<1<1<6,,66,6161666666666636333388888",
"8888888888888883336631316666611616,66,,,1,1,11,,1,,,1,,,,,,,,,,,,,,<,,,,,,,,,11,1<,,,,,1,11,111166,66<66666666666666636633338888",
"88888888888888883636361366666666666166661111111,11,6,,1,,,,1,,1,,,,1,,,,,,,,,,,,1111111,11111111,6666666666666366663363363338888",
"888888888888888883633663633666666666116,11111111111,1,1,11,11111,1,,1,1,1,11,11,,1111111111116166,666616666666366336633333338888",
"888888888888888888888888888888888888888888888888881111111,11111,11111,1111,1,111111111111161611166666666666363633133333333338888",
"88888888888888888888888888888888888888888888888888861611111111111111111111111111111111116166166666666366663636333663333333338888",
"88888888888888888888888888888888888888888888888888886116111116111111111111161116111166611666666666666636636363663333333533388888",
"88888888888888888888888888888888888888888888888888881666116611111616111616116166666666166666666666636636366363333333333335388888",
"88888888888888888888888888888888888888888888888888888666666666666166661666666666666666666663363636636363333333333333353533588888",
"88888888888888888888888888888888888888888888888888888666666666666666666666666666666666666666666666663333363333335333533355588888",
"88888888888888888888888888888888888888888888888888888666666666666666666666666666666366366333633633333663333333333335234224888888",
"88888888888888888888888888888888888888888888888888886366366666666666666663666636636636363666336333633333333333555323553252888888",
"88888888888888888888888888888888888888888888888888886633663333636363363636633663633663663333633333333333335333553552552222888888",
"88888888888888888888888888888888888888888888888888833336366636666336366366666636666336333633353333333333533555552255544444888888",
"88888888888888888888888888888888888888888888888883336336333363333633633633333333333333333333333333333535355353555352242442888888",
"888888888888888888<<888888888888888833323333333333333333363333363633363333633363333333333333433333535653553555555224244448888888",
"888888888888888,<<,<,<<888888888885534333533533335333333333333333333333333333333333333353333334353335555555555552244444448888888",
"8888888888888,,,<,,,,,<,,8888888843443433355333333333333333333333333333333533333333333333333335343355555555555544424444448888888",
"888888888888,,,,,,,,,,,,,,888888434344335553355353533533533333533333333333333533433433333343433443545535555555444444444448888888",
"888888888888,6,61,1,6,,11188888855554334253223535322353333233433333333233535335333533434435355553434454544444444444444:488888888",
"888888888881666661616161118888884545444455522555553523255335335343424533353353354334433433453555344345444444444:44444:4488888888",
"88888888888666666616661131888888444445435225225555552552233543433423323553552552355554334534555544444445444444:4:44:44::88888888",
"88888888888836666636663613888888444445245455555553352532555543524355355555555322543534443454544444444444444444444::::4:488888888",
"88888888888833633363363638888888844444444444455555545555455555542443555555555555555455544444444444444444444:5::4:::44::888888888",
"8888888888888833333333338888888888:44444444444444454552455554555434455555455554555544444445444444444444444:4::4::4:::::888888888",
"888888888888888833333338888888888888:444444444444444444444544445444544445544454444444444444444444:4:4::4:45:4::44:4::88888888888",
"88888888888888888888888888888888888888888888888888888888888888888888888888888888888888888888888888888888888888888888888888888888"
};
