/* XPM */
static char *_515860771190[] = {
/* columns rows colors chars-per-pixel */
"64 64 23 1 ",
"  c #ED255E",
". c #F1245B",
"X c #DC2B6C",
"o c #CF2F77",
"O c #CD2F78",
"+ c #D32D73",
"@ c #D82C70",
"# c #C5327E",
"$ c #CA307A",
"% c #E72763",
"& c #EA2661",
"* c #E42866",
"= c #E12968",
"- c #BD3485",
"; c #B5378C",
": c #B93589",
"> c #B1388E",
", c #A73B97",
"< c #AB3A93",
"1 c #A43C99",
"2 c #B03890",
"3 c #C23382",
"4 c None",
/* pixels */
"4444444444444444444444444444444444444444444444444444444444444444",
"4444444444..44444444%%*%&&   ........... &&&*&*44444444444444444",
"44444444%&..&%4444===%*&&  &  ....... .  &&&&***=444444444444444",
"4444444=*%%%%*=444=*%*%%&&&   ........  &&&**&**=444444444444444",
"4444444X==***=X44===*%%&%&&   . .....   &&&&*&*==444444444444444",
"44444444XX===X4444==*=%%&&& &           &&&&&****444444444444444",
"44444444@@@XX@4444===**%*&&& &       &  &&&****=4444444444444444",
"444444444444444444444444444&&        & &&&&&****4444444444444444",
"4444444444444444444444444444&&&&      %%&&&***==4444444444444444",
"44444444444444444444444444444&& &&&&% &&&*****==4444444444444444",
"44444444444444444444444444444%%&&&&&%%%&*&***===4444444444444444",
"4444444444444444444444444444&%%%*&&&%*&*****===44444444444444444",
"444444444444444444444444444***%%&*&**%&****====44444444444444444",
"4444444+++++@@@@@XXXXX===*=***************=====44444444444444444",
"444444$++o+++X@X@XXX=X=====************==*==X=X44444444444444444",
"444444$OO+++++++@@XXXXX=======********=======XX44444444444444444",
"444444OO++++++@@@XXXXXXX==X=================XX444444444444444444",
"4444444O$+$++++++@@X@XXXXX=X=============XXX=@444444444444444444",
"4444444444444444444444444XXXX===X===X=XXXXXX@X444444444444444444",
"444444444444444444444444444XXXXX=XX=XXXXXXXXX@444444444444444444",
"444444444444444444444444444XXXXXXXXXXXXX@X@X@4444444444444444444",
"444444444444444444444444444XXXXXXXXXXXXXX@@@@4444444444444444444",
"444444444444444444444444444@X+X@@XX@@@+X@@@@@4444444444444444444",
"4444444444444444444444444X+X+X@@@X@@@@X@@@@@@4444444444444444444",
"44444@+@@4444444o++o++++++@@@@@@@@@@@@@+@++@+4444444444444444444",
"4444+++@++44444Oo+$+++++++@++@+@@@@++@@+@@++44444444444444444444",
"444++++++++444Ooooooo+++++++++@++@+@@++++o++44444444444444444444",
"444$ooO+O+O444O$$ooo+oooo++++++++++++++++++o44444444444444444444",
"4444O$+$$O44444$$oooooo+o+o+o++++o++++o++o++44444444444444444444",
"44444$$$$4444444$$$o$ooooo+o+oo+o+ooo++ooooo44444444444444444444",
"444444444444444444444444444444oo++o++oooooo444444444444444444444",
"4444444444444444444444444444444oOOOoOooOOOo444444444444444444444",
"4444444444444444444444444444444oOOOOOoO$$$o444444444444444444444",
"4444444444444444444444444444444$$OOOO$O$$$$444444444444444444444",
"444444444444444444444444444444$$$$$$$O$$$$$444444444444444444444",
"4444444444444444444444444444$#$$$$$$$#$#$#4444444444444444444444",
"44444444444-33333##3#######$$#$$$$#$#$####4444444444444444444444",
"4444444444---3-3333#3########$#######$$###4444444444444444444444",
"4444444444-3-3-333333#3###3##3############4444444444444444444444",
"4444444444:----33333333333#3#3#3###3#3#3344444444444444444444444",
"444444444443:----333-33333333333333##-#3#44444444444444444444444",
"44444444444444-------33-3333333333333#-#-44444444444444444444444",
"44444444444444444444444--3-333-33-333-3-344444444444444444444444",
"4444444444444444444444443--3:33:-3--3----44444444444444444444444",
"444444444444444444444444:3:33:----------444444444444444444444444",
"444444444444444444444444:3-::3:-----:---444444444444444444444444",
"44444444444444444444444::-:-:-----:---:-444444444444444444444444",
"44444444>>;>;;;;;:;:;-;;::::::::::::::::444444444444444444444444",
"44444442>>>>>;;>;;;;;:;::;:::;-:::::::;:444444444444444444444444",
"44444442222>>>;;;;;;;;;;;::;;:;::::::;:::;4444444444444444444444",
"4444444<<222>>>>>;;;;;;;;;;;:;;:;;:;;;:;;;;:;>;;;;;;>>>>>>2><444",
"44444444<222<>>>2;22>;;;;;;;>;;;;;;;;;>;;;>;;;;>>>22>22><<<<<<44",
"444444444444444444444444;;>;;>;>;;;;;;>;;>>;22>>2>22222<<<<<<<44",
"44444444444444444444444444;>>>>>;222>>>;;22>222222222<<2<<<<<<44",
"444444444444444444444444442>>>2>>>2>2>>2222222<222<<<<<<<<<,<444",
"444444444444444444444444442<22222222222222222<22<<2<<<<<<<<,<444",
"44444444444444444444444444<2<2<>222<222<2<2<2<22<<2,1111,,,,,444",
"4444444444444444444444444<<2<><<<<<2<<2<22<<<<,2,2,21111<,,1,444",
"44444444:::4444444,<<<<<<<<<<<<<<<<<<<<<2,2,<<,,2,,,1111,1,11444",
"444444;;;;;:;444,,,,,<,<<<,<<<<<<<<<<<<<,<,2,<,<,,,,,111,1114444",
"444444;;>;>>>444,,,,,,,,,,<,,,<<,<,<<,<,2,,,<,,,,,,,111111114444",
"444444<2<22>>44411,1,,,,,,,,,,,,,<,,,<<,,,,,,,111111111111114444",
"4444444<<<<<44444111,,,,,,,,,,,,,,,,,,11,,,,11111111111111144444",
"444444444<444444444111111,,,111,,,,,,1,1111111111111111111444444"
};
